PathFileType	4	(X/Y/Z)	5_2_24_p1_0-844_filt_butterworth.trc
DataRate	CameraRate	NumFrames	NumMarkers	Units	OrigDataRate	OrigDataStartFrame	OrigNumFrames
60.0	60.0	7	27	m	60.0	633	844
Frame#	Time	RHip			RKnee			RAnkle			RBigToe			RSmallToe			RHeel			LHip			LKnee			LAnkle			LBigToe			LSmallToe			LHeel			Neck			Head			Nose			RShoulder			RElbow			RWrist			RThumb			RIndex			RPinky			LShoulder			LElbow			LWrist			LThumb			LIndex			LPinky			
		X1	Y1	Z1	X2	Y2	Z2	X3	Y3	Z3	X4	Y4	Z4	X5	Y5	Z5	X6	Y6	Z6	X7	Y7	Z7	X8	Y8	Z8	X9	Y9	Z9	X10	Y10	Z10	X11	Y11	Z11	X12	Y12	Z12	X13	Y13	Z13	X14	Y14	Z14	X15	Y15	Z15	X16	Y16	Z16	X17	Y17	Z17	X18	Y18	Z18	X19	Y19	Z19	X20	Y20	Z20	X21	Y21	Z21	X22	Y22	Z22	X23	Y23	Z23	X24	Y24	Z24	X25	Y25	Z25	X26	Y26	Z26	X27	Y27	Z27	
633	10.55	0.3688723040042356	0.5289237885498349	0.7990376713990175	0.3864000064113629	0.5909835128555787	1.2403217164097924	0.4009017327670957	0.6590212088004955	1.6776081473506106	0.35656554831722165	0.5003575645556296	1.6437358457687683	0.4212142353841699	0.5387819636050118	1.6475134942023866	0.4054015222521854	0.73009785881828	1.7200286062055632	0.14423776481116396	0.5047518467284972	0.8164611848173977	0.166217158516148	0.57648294790555	1.2658390669715671	0.17893318366389183	0.657746672387131	1.6784909151450624	0.25349800401314987	0.5323002469407607	1.6800704434253748	0.17758530954736854	0.5466394977061909	1.7001062597403462	0.164645318674742	0.7421216361386339	1.7449059833949652	0.22010609372972387	0.453318839134095	0.3109024003759525	0.21583752233818465	0.3079729322923894	0.09068629195303886	0.22862241370732111	0.25832456635991874	0.22800330347139025	0.39516363750446487	0.4385019295296791	0.33554628923408836	0.4524043686609105	0.43289555381637024	0.5698207163255156	0.4290540704603894	0.2714177571554972	0.451200638189705	0.3984550118370525	0.23773707645888328	0.3469010575852718	0.40947347055027494	0.19401824177332871	0.35707252813376245	0.40406274432505856	0.18133021221961998	0.40535230726549504	0.0838893893996678	0.45035272614349403	0.3577643188000488	0.06050250115756116	0.44485759977911105	0.6168510717679775	0.042532556009260536	0.3366653418790496	0.47558951082047607	0.012242752668679004	0.32632044968530904	0.3758070422284602	-0.002194707113672919	0.2677613340189526	0.3800010970185561	0.016185295435398612	0.23465703097050855	0.39975365838165317
634	10.566666666666666	0.36749703019221946	0.5325098313033453	0.7996079136852948	0.38668890314719123	0.5951249394483488	1.2412529215397716	0.4002836340245324	0.6613205580003139	1.6755648235504537	0.3580650438519196	0.506310348297669	1.6451259566796055	0.42153312147861643	0.5408895699360712	1.649242138178666	0.40479410413941663	0.7278553031097349	1.7186232136669106	0.14414488715378065	0.5036083409878728	0.816286840351824	0.16597407772205391	0.5766445437545322	1.2629530692292756	0.17800337012993644	0.6569680545079413	1.6749331414284854	0.256144313804954	0.5305253465578884	1.6770672068916	0.18076750896315114	0.5429699550054895	1.6966525008703106	0.1649908863414912	0.7386963965520017	1.7405016471378887	0.22057754855189915	0.4531078257617456	0.31090832287913234	0.21922749499419664	0.3083149398337886	0.08995002461138071	0.2304466659733851	0.2594318249553035	0.2278350587779295	0.3977811903069747	0.4430029592207639	0.33511485537661034	0.45507125279109334	0.43753007968295604	0.5722747609024877	0.4269993106737712	0.27226527716231985	0.45882142802580933	0.39578513280323	0.234652526201738	0.3535222655184786	0.40566102992109887	0.19724211949378637	0.3647007501605128	0.40232372032855235	0.18418631923320922	0.4112161532785981	0.08560823160467819	0.4478614987799843	0.3598491664185206	0.0603438016685155	0.45077565955328797	0.6171635971851173	0.04635121098473073	0.3333409242435136	0.47728688980563405	0.018501205898952332	0.31939248765004075	0.3820060590778007	0.010232855088550012	0.25667730827654894	0.3846969001091441	0.02764392623654081	0.23238503572920924	0.40249169887720615
635	10.583333333333334	0.3656890796807944	0.5372467453826767	0.8003237133783389	0.3865326590417409	0.599860661152271	1.240684608725269	0.4004468624070483	0.6644303179328691	1.6717507778763627	0.3593193635293409	0.5123812558449707	1.6453291672184664	0.4211038511267001	0.5411729102943151	1.6500954756797466	0.4051172784457646	0.7297463160142907	1.7184367054082377	0.14420712770103677	0.5029184873609416	0.8162037600847307	0.16535310669081843	0.5765623340836419	1.2578436268745705	0.17730519923068838	0.6588726770004283	1.6710926609594334	0.258569777562376	0.5244093129062548	1.6704249232838628	0.18568780926737574	0.5326173235310044	1.6886394774108464	0.16466867948783834	0.7359630138217804	1.7336270583067221	0.22063499388930757	0.4527977745131081	0.31097953955611507	0.22237227832878667	0.3086778026082355	0.089626704300241	0.2319945964957631	0.26040816892173496	0.22768359051448261	0.39918354088436103	0.44617838744494154	0.3349843239304071	0.4575912690735058	0.4460210472802815	0.5741542813641116	0.4248177526318008	0.2737744427644513	0.4667823638055088	0.39346451920352515	0.2305819239628684	0.36277866748353804	0.4019437647481493	0.19844599446245306	0.3734854408777259	0.4009353735016694	0.1870745113414426	0.4176285105745787	0.08783769824351437	0.44413796911863235	0.36206992500385843	0.05896919729836796	0.4580597581031544	0.6180309509424747	0.04924265290949631	0.3329418079594816	0.4784842160161192	0.02545650241704106	0.3126101883521953	0.38812079349430945	0.022255008836524228	0.24482625624344687	0.387020526016032	0.037765304556443294	0.23186626649716363	0.40632155660247843
636	10.6	0.3643203311819475	0.5408442572449124	0.8007907871634508	0.38611173956473943	0.6019428416563783	1.2392950767943813	0.40167823916391904	0.6696164192837011	1.6696590086454086	0.359950531914003	0.5152096937445096	1.6442432380918484	0.4216979008964112	0.5379644415325008	1.6487045520416361	0.40716487450614325	0.7341342416456725	1.7185317349979257	0.14426310271040516	0.5027790229072828	0.8163757187565295	0.1647750674095486	0.5758658833923102	1.2531331966708048	0.1773076388576304	0.6618089694108037	1.6683594343015309	0.2602621528064433	0.516544198923061	1.6622937598201282	0.19136258143490098	0.5185907494858458	1.678459191716485	0.16389950480340806	0.7337813268756826	1.7275618146019633	0.22049264950037598	0.45279871546548145	0.3110465338178463	0.22470541227909374	0.30816290569365096	0.08998429343116678	0.23299825548792122	0.26104410802817996	0.22758513344862052	0.3994223201984532	0.44858224112201345	0.3356978947999681	0.4585271529481568	0.45696420636348345	0.5755440991325634	0.42231445964599695	0.2752555551960453	0.4747691929925	0.3916087176533939	0.22636351983203665	0.3735819771385843	0.39878980927664304	0.19910513850283737	0.38476088160049426	0.39936082839425335	0.19027242815363163	0.42734757862501266	0.08954764923858624	0.44105826725066133	0.3639769025628636	0.05672032109510358	0.46605289707594066	0.6193537171804829	0.05168643052048885	0.3326629360818645	0.4796691377465456	0.03348394420631471	0.30711745519050154	0.3929133486973214	0.0326412446778316	0.23352092798286375	0.38720154512998745	0.04556357242204828	0.2304886419043149	0.4124882695774794
637	10.616666666666667	0.36377969628780316	0.5423622245995652	0.8011008019039668	0.38586530275333486	0.5998714552954667	1.2385301589823823	0.4029550939884124	0.6743145449693367	1.6707400275739974	0.36027998195387384	0.5150150997305697	1.6434468633365853	0.42372325986175263	0.5332504555539994	1.64601537370014	0.4097390887718543	0.7377642939812878	1.7180563371187199	0.14427267568871666	0.5031196680238605	0.8173162308121146	0.1646437371920994	0.5744788818395691	1.250930887018708	0.17829664708403312	0.6640368264044811	1.6675565017187317	0.2609198578675991	0.511777911317157	1.656181864794653	0.19502447585869334	0.5086345620965752	1.670235987722627	0.16272049136080627	0.733001924903793	1.724461317005482	0.22025864517272745	0.45313366016634393	0.3110565252764811	0.22686168218454356	0.3061560752593197	0.09121159281246811	0.23371762380882785	0.26147403591829665	0.22752570254061116	0.3993458094410575	0.4524693952702589	0.33810168794083956	0.4574280241587245	0.468127055386405	0.5774822578442431	0.41909919237866355	0.2756469991435035	0.48285209575388344	0.38949679907980667	0.22381922627894063	0.38336655205573683	0.3973007606947289	0.19971197455570683	0.39694516004415903	0.3972371681126399	0.19489553301633677	0.4416741036014057	0.0903878624891557	0.44018774280705963	0.3653939373586177	0.054482495674973014	0.47509035812217837	0.6209047463624376	0.05429036443413003	0.3311074376061911	0.4817293156653716	0.0422622180745292	0.30263298990137244	0.3971789454478756	0.04068498889460773	0.22478532756086772	0.38742448809045715	0.05157097134295535	0.22703039046012172	0.42139562948583764
638	10.633333333333333	0.3637891953087186	0.5427812637805569	0.8019710815069444	0.38583000197029094	0.5953710632256326	1.238372439913415	0.40303695019982544	0.675526509292627	1.672695553543615	0.36098075049893963	0.5140371153196782	1.6440350372008492	0.42571759917365704	0.530764367849375	1.6440483610722214	0.4111915113418057	0.7389669519492634	1.7171522537384	0.14427015764721235	0.5039190680409945	0.8194243333057812	0.16479987188111067	0.5729378901848572	1.2509516126737685	0.17964373518608728	0.6652543756577376	1.6677104710399844	0.26089549370613807	0.5118709254491769	1.653818682506873	0.19526436745736828	0.5073004861132766	1.6669189201218815	0.16134093853412168	0.734662430086316	1.723816062262525	0.22026114382687012	0.4533333372854743	0.31101316315803196	0.22940644675089983	0.3033276822719969	0.09279961504976972	0.23464899319728136	0.2620211953532994	0.22744768342099977	0.40014970424329444	0.45831919328606174	0.3426249341715151	0.45490490661739896	0.4788833697972131	0.5808427199470193	0.41486599613003405	0.27392963310098817	0.49138591198235726	0.3871651665158463	0.22319291192142152	0.39145891104342406	0.3974458362145992	0.20019815728419885	0.40785822706649566	0.3952568550355063	0.20120581753031794	0.458785507526649	0.09106160316613277	0.4421858699047211	0.36670400393828867	0.05260408913172457	0.4856281507949619	0.6227402503565966	0.05714878873259861	0.3299630641389941	0.4853161195708854	0.05018359096281706	0.3000722224659997	0.4023168751223769	0.045905965215383385	0.22126981772663676	0.39006278339081213	0.05595591735012945	0.22290594687668344	0.4318098623161207
639	10.65	0.3639693555629742	0.5433092829348689	0.8040109246807022	0.3857544944150594	0.5913085703933587	1.2372854178822281	0.4019673324132367	0.6749787712867485	1.672941338485237	0.36241976376843177	0.5133060927747131	1.6452288869259228	0.4261827724497527	0.5315858506440149	1.6432897195508818	0.41107380615122296	0.7389297382157336	1.7167311750446455	0.14428310983344622	0.5049284496654397	0.82216841492878	0.1648635260360851	0.5718596016627937	1.251629198123366	0.18017516855119342	0.6660608846749942	1.6669652389657443	0.26051811442811496	0.5143738366988096	1.6546445065708788	0.19323027857355204	0.5117471579410071	1.6682277224830424	0.15957193222506735	0.7388797314299291	1.7242851152082925	0.22123614741557734	0.45243779385415805	0.31093852009717426	0.23178090229598575	0.3011923392322763	0.093940236796473	0.2357868005256402	0.262746946236165	0.22733440666828852	0.4024982512514479	0.46424916514741155	0.3484566713825086	0.4520797380574877	0.4898499172877184	0.5854564865914115	0.41033691669038613	0.2701678400412903	0.5002263448301596	0.38589105546748714	0.22234634814115412	0.400137127048263	0.39804642002182433	0.20064003201324254	0.4178111329084142	0.3941620167018004	0.2073443385341477	0.4751099464600442	0.09233012342267034	0.44695410116334355	0.3682840883622157	0.05112661832403512	0.49674075447490107	0.6246521430871217	0.06029825305313644	0.33070585703908395	0.4905684683032564	0.05626962357406711	0.30031639742827343	0.40850643159372113	0.04895593548539031	0.22318549557207545	0.39590664487647914	0.05837445444218063	0.22059694537844257	0.44187988704033176
